<svg width="80" height="24" viewBox="0 0 80 24" fill="none" xmlns="http://www.w3.org/2000/svg">
<g clip-path="url(#clip0_4000_2834)">
<g clip-path="url(#clip1_4000_2834)">
<path d="M0 23.4759V0H10.6673C12.0214 0 13.2374 0.275862 14.3152 0.8C15.393 1.32414 16.222 2.06897 16.8024 2.97931C17.3827 3.91724 17.6867 4.96552 17.6867 6.17931C17.6867 7.44828 17.3551 8.55172 16.7195 9.48966C16.0838 10.4276 15.1719 11.1172 14.0388 11.5862C15.31 11.9448 16.3049 12.6345 17.0234 13.6276C17.742 14.6207 18.1012 15.8069 18.1012 17.2138C18.1012 18.5103 17.7972 19.6414 17.1616 20.5793C16.526 21.5172 15.6417 22.2621 14.5086 22.7586C13.3756 23.2552 12.0214 23.5034 10.5291 23.5034H0V23.4759ZM9.14734 9.71035C10.1699 9.71035 10.9436 9.46207 11.524 8.96552C12.1043 8.46897 12.3807 7.77931 12.3807 6.89655C12.3531 6.06897 12.0767 5.37931 11.524 4.91034C10.9713 4.44138 10.2251 4.1931 9.23025 4.1931H5.05729V9.73793H9.14734V9.71035ZM9.56187 19.3103C10.612 19.3103 11.4411 19.0621 11.9938 18.5379C12.5465 18.0414 12.8229 17.3241 12.8229 16.4414C12.8229 15.5586 12.5465 14.869 11.9662 14.3724C11.3858 13.8759 10.612 13.6276 9.58951 13.6276H5.05729V19.3103H9.56187Z" fill="#eceae8"/>
<path d="M20.5331 15.476C20.5331 13.7933 20.8924 12.3036 21.6109 11.0071C22.3294 9.71052 23.352 8.71742 24.6785 8.00018C26.005 7.28294 27.5249 6.92432 29.2383 6.92432C30.9793 6.92432 32.5269 7.28294 33.8534 8.00018C35.1799 8.71742 36.2024 9.71052 36.921 11.0071C37.6395 12.3036 37.9988 13.7933 37.9988 15.476C37.9988 17.1588 37.6395 18.6485 36.921 19.9174C36.2024 21.214 35.1799 22.2071 33.8534 22.9243C32.5269 23.6416 31.007 24.0002 29.2383 24.0002C27.4973 24.0002 25.9773 23.6416 24.6785 22.9243C23.352 22.2071 22.3294 21.1864 21.6109 19.8898C20.92 18.5933 20.5331 17.1312 20.5331 15.476ZM25.701 15.476C25.701 16.276 25.8391 16.9657 26.1155 17.5726C26.3919 18.1795 26.8064 18.6485 27.3591 19.0071C27.9118 19.3657 28.5474 19.5312 29.2659 19.5312C29.9845 19.5312 30.6201 19.3657 31.1728 19.0347C31.7255 18.7036 32.14 18.2347 32.444 17.6278C32.748 17.0209 32.8862 16.3036 32.8862 15.476C32.8862 14.676 32.748 13.9588 32.444 13.3519C32.14 12.745 31.7531 12.2485 31.2004 11.9174C30.6754 11.5864 30.0397 11.3933 29.2659 11.3933C28.5474 11.3933 27.9394 11.5588 27.3867 11.8898C26.834 12.2209 26.4195 12.7174 26.1431 13.3243C25.8391 13.9588 25.701 14.676 25.701 15.476Z" fill="#eceae8"/>
<path d="M41.3428 23.4761V7.47605H45.7921L45.9855 9.29674C46.2895 8.63468 46.7593 8.11054 47.4226 7.72433C48.0582 7.33812 48.7767 7.14502 49.5505 7.14502C49.8821 7.14502 50.1861 7.17261 50.4348 7.20019C50.6836 7.25536 50.9046 7.31054 51.0705 7.3933V11.8623C50.7112 11.7519 50.269 11.6967 49.6887 11.6967C48.5556 11.6967 47.6713 12.0278 47.1186 12.7174C46.5382 13.4071 46.2619 14.3174 46.2619 15.5036V23.4485H41.3428V23.4761Z" fill="#eceae8"/>
<path d="M53.6953 23.4758V7.4758H57.9788L58.3381 9.29649C58.6697 8.60684 59.2777 8.05511 60.162 7.64132C61.0463 7.22753 62.0412 7.00684 63.119 7.00684C64.3073 7.00684 65.3298 7.25511 66.2142 7.75166C67.0985 8.24822 67.7618 8.96546 68.2316 9.8758C68.7014 10.8137 68.9225 11.8896 68.9225 13.1861V23.5034H64.0033V14.3724C64.0033 13.3793 63.7823 12.6344 63.3677 12.1379C62.9256 11.6413 62.3176 11.3655 61.5162 11.3655C60.6318 11.3655 59.9409 11.6689 59.4159 12.2758C58.8908 12.8827 58.6421 13.7103 58.6421 14.731V23.5034H53.6953V23.4758Z" fill="#eceae8"/>
<path d="M74.5885 9.71035C73.6766 9.71035 72.8199 9.51724 72.0461 9.10345C71.2723 8.68966 70.6643 8.11035 70.2221 7.39311C69.78 6.64828 69.5312 5.82069 69.5312 4.88276C69.5312 3.94483 69.7523 3.08966 70.2221 2.37242C70.6643 1.62759 71.2723 1.07587 72.0461 0.662072C72.8199 0.248279 73.6489 0.0551758 74.5885 0.0551758C75.5005 0.0551758 76.3296 0.248279 77.1034 0.662072C77.8771 1.07587 78.4575 1.62759 78.9273 2.37242C79.3695 3.11724 79.5905 3.94483 79.5905 4.88276C79.5905 5.82069 79.3695 6.67587 78.9273 7.39311C78.4851 8.13793 77.8771 8.71725 77.1034 9.10345C76.3296 9.48966 75.5005 9.71035 74.5885 9.71035ZM74.5609 8.66207C75.307 8.66207 75.9703 8.49656 76.5506 8.19311C77.131 7.86207 77.6008 7.42069 77.9324 6.84138C78.264 6.26207 78.4298 5.6 78.4298 4.85518C78.4298 4.11035 78.264 3.44828 77.9324 2.86897C77.6008 2.28966 77.131 1.84828 76.5506 1.51724C75.9703 1.2138 75.307 1.04828 74.5885 1.04828C73.87 1.04828 73.2068 1.2138 72.6264 1.51724C72.0461 1.84828 71.5763 2.28966 71.2446 2.86897C70.913 3.44828 70.7472 4.11035 70.7472 4.85518C70.7472 5.6 70.913 6.26207 71.2446 6.84138C71.5763 7.42069 72.0461 7.86207 72.6264 8.19311C73.1791 8.49656 73.8147 8.66207 74.5609 8.66207ZM72.8475 7.2V2.48276H74.6991C75.4729 2.48276 76.0532 2.70345 76.4677 3.11724C76.8823 3.53104 77.0757 4.11035 77.0757 4.85518C77.0757 5.62759 76.8546 6.2069 76.4401 6.62069C76.0256 7.03449 75.4452 7.22759 74.6991 7.22759H72.8475V7.2ZM74.0358 6.67587L73.4555 6.09655H74.6714C75.0307 6.09655 75.3347 5.98621 75.5281 5.76552C75.7216 5.54483 75.8321 5.24138 75.8321 4.85518C75.8321 4.44138 75.7216 4.13793 75.5281 3.91724C75.3347 3.69656 75.0583 3.58621 74.6991 3.58621H73.4831L74.0635 3.0069V6.67587H74.0358Z" fill="#eceae8"/>
</g>
</g>
<defs>
<clipPath id="clip0_4000_2834">
<rect width="80" height="24" fill="white"/>
</clipPath>
<clipPath id="clip1_4000_2834">
<rect width="80" height="24" fill="white"/>
</clipPath>
</defs>
</svg>
